<svg width="86" height="90" viewBox="0 0 86 90" fill="none" xmlns="http://www.w3.org/2000/svg">
<path d="M66.375 0C77.1446 0 85.875 8.73045 85.875 19.5V70.5C85.875 81.2696 77.1446 90 66.375 90H26C16.0775 90 7.88533 82.5889 6.6582 73H2.625C1.24429 73 0.125 71.8807 0.125 70.5C0.125 69.1193 1.24429 68 2.625 68H6.5V47.5H2.625C1.24429 47.5 0.125 46.3807 0.125 45C0.125 43.6193 1.24429 42.5 2.625 42.5H6.5V22H2.625C1.24429 22 0.125 20.8807 0.125 19.5C0.125 18.1193 1.24429 17 2.625 17H6.6582C7.88533 7.41111 16.0775 0 26 0H66.375ZM26 5C18.8445 5 12.9006 10.1833 11.7158 17H13.25C14.6307 17 15.75 18.1193 15.75 19.5C15.75 20.8807 14.6307 22 13.25 22H11.5V42.5H13.25C14.6307 42.5 15.75 43.6193 15.75 45C15.75 46.3807 14.6307 47.5 13.25 47.5H11.5V68H13.25C14.6307 68 15.75 69.1193 15.75 70.5C15.75 71.8807 14.6307 73 13.25 73H11.7158C12.9006 79.8167 18.8445 85 26 85H66.375C74.3831 85 80.875 78.5081 80.875 70.5V19.5C80.875 11.4919 74.3831 5 66.375 5H26ZM47.25 46.75C51.3973 46.75 55.449 47.9946 58.8818 50.3213H58.8828C59.9536 51.038 62.8269 52.6742 64.6514 54.6836C65.603 55.7317 66.5498 57.1611 66.7217 58.9326C66.9044 60.8172 66.1661 62.5808 64.7314 64.1191L64.7324 64.1201C62.46 66.5595 59.517 68.75 55.5801 68.75H38.9199C34.983 68.75 32.04 66.5595 29.7676 64.1201V64.1191C28.3332 62.5809 27.5956 60.817 27.7783 58.9326C27.9502 57.1612 28.8972 55.7318 29.8486 54.6836C31.6719 52.6749 34.5451 51.0365 35.6143 50.3193L35.7041 50.2646C39.1187 47.975 43.137 46.75 47.25 46.75ZM47.25 51.75C44.0983 51.75 41.0195 52.6973 38.4121 54.4678C38.3815 54.4885 38.3485 54.5052 38.3174 54.5244C36.7284 55.583 34.8091 56.6577 33.5508 58.0439C32.9507 58.7051 32.7797 59.1591 32.7549 59.415C32.7411 59.557 32.7275 59.9635 33.4248 60.7109L33.4268 60.7129C35.3192 62.7443 37.0261 63.75 38.9199 63.75H55.5801C57.4739 63.75 59.1808 62.7443 61.0732 60.7129L61.0752 60.7109C61.7726 59.9634 61.7589 59.5569 61.7451 59.415C61.7203 59.1593 61.5492 58.7057 60.9492 58.0449C59.6702 56.6363 57.704 55.5491 56.1016 54.4766C56.0971 54.4735 56.0924 54.4708 56.0879 54.4678C53.4805 52.6972 50.4017 51.75 47.25 51.75ZM47.25 21.25C50.1674 21.25 52.9654 22.4088 55.0283 24.4717C57.0912 26.5346 58.25 29.3326 58.25 32.25C58.25 35.1674 57.0912 37.9654 55.0283 40.0283C52.9654 42.0912 50.1674 43.25 47.25 43.25C44.3326 43.25 41.5346 42.0912 39.4717 40.0283C37.4088 37.9654 36.25 35.1674 36.25 32.25C36.25 29.3326 37.4088 26.5346 39.4717 24.4717C41.5346 22.4088 44.3326 21.25 47.25 21.25ZM47.25 26.25C45.6587 26.25 44.133 26.8826 43.0078 28.0078C41.8826 29.133 41.25 30.6587 41.25 32.25C41.25 33.8413 41.8826 35.367 43.0078 36.4922C44.133 37.6174 45.6587 38.25 47.25 38.25C48.8413 38.25 50.367 37.6174 51.4922 36.4922C52.6174 35.367 53.25 33.8413 53.25 32.25L53.2422 31.9521C53.1685 30.4693 52.547 29.0626 51.4922 28.0078C50.367 26.8826 48.8413 26.25 47.25 26.25Z" fill="black"/>
</svg>
