<svg width="82" height="90" viewBox="0 0 82 90" fill="none" xmlns="http://www.w3.org/2000/svg">
<path d="M45.25 0C51.1888 0 55.8956 -0.0053289 59.5732 0.489258C63.3215 0.993355 66.3736 2.05748 68.7812 4.4668L69.0029 4.69434C71.2577 7.06617 72.2722 10.0445 72.7607 13.6768C73.2553 17.3544 73.25 22.0612 73.25 28V85H79.25C80.6307 85 81.75 86.1193 81.75 87.5C81.75 88.8807 80.6307 90 79.25 90H2.75C1.36929 90 0.25 88.8807 0.25 87.5C0.250001 86.1193 1.36929 85 2.75 85H8.75V28C8.75 22.0612 8.74467 17.3544 9.23926 13.6768C9.74349 9.92749 10.8081 6.87477 13.2188 4.4668C15.6264 2.05748 18.6785 0.993355 22.4268 0.489258C26.1044 -0.0053289 30.8112 0 36.75 0H45.25ZM36.75 5C30.6701 5 26.3606 5.00505 23.0938 5.44434C19.8986 5.87404 18.0784 6.67792 16.7549 8.00293L16.7529 8.00488C15.4279 9.32839 14.624 11.1486 14.1943 14.3438C13.7551 17.6106 13.75 21.9201 13.75 28V85H68.25V28C68.25 21.9201 68.2449 17.6106 67.8057 14.3438C67.376 11.1486 66.5721 9.32839 65.2471 8.00488L65.2451 8.00293C63.9216 6.67792 62.1014 5.87404 58.9062 5.44434C55.6394 5.00505 51.3299 5 45.25 5H36.75ZM24.29 63.7627C25.5505 63.8909 26.5342 64.9557 26.5342 66.25C26.5342 67.5443 25.5505 68.6091 24.29 68.7373L24.0342 68.75H23.9961C22.6154 68.75 21.4961 67.6307 21.4961 66.25C21.4961 64.8693 22.6154 63.75 23.9961 63.75H24.0342L24.29 63.7627ZM49.5 12.75C51.3124 12.75 52.9383 12.8414 54.332 13.1475C55.7539 13.4597 57.0892 14.0287 58.1553 15.0947C59.2213 16.1608 59.7903 17.4961 60.1025 18.918C60.4086 20.3117 60.5 21.9376 60.5 23.75V40.75C60.5 42.5624 60.4086 44.1883 60.1025 45.582C59.7903 47.0039 59.2213 48.3392 58.1553 49.4053C57.0892 50.4713 55.7539 51.0403 54.332 51.3525C52.9383 51.6586 51.3124 51.75 49.5 51.75H32.5C30.6876 51.75 29.0617 51.6586 27.668 51.3525C26.2461 51.0403 24.9108 50.4713 23.8447 49.4053C22.7787 48.3392 22.2097 47.0039 21.8975 45.582C21.5914 44.1883 21.5 42.5624 21.5 40.75V23.75C21.5 21.9376 21.5914 20.3117 21.8975 18.918C22.2097 17.4961 22.7787 16.1608 23.8447 15.0947C24.9108 14.0287 26.2461 13.4597 27.668 13.1475C29.0617 12.8414 30.6876 12.75 32.5 12.75H49.5ZM26.5 40.75C26.5 42.4545 26.5925 43.6503 26.7812 44.5098C26.9637 45.3406 27.2003 45.6905 27.3799 45.8701C27.5595 46.0497 27.9094 46.2863 28.7402 46.4688C29.5997 46.6575 30.7955 46.75 32.5 46.75H38.5V34.75H26.5V40.75ZM43.5 46.75H49.5C51.2045 46.75 52.4003 46.6575 53.2598 46.4688C54.0906 46.2863 54.4405 46.0497 54.6201 45.8701C54.7997 45.6905 55.0363 45.3406 55.2188 44.5098C55.4075 43.6503 55.5 42.4545 55.5 40.75V34.75H43.5V46.75ZM32.5 17.75C30.7955 17.75 29.5997 17.8425 28.7402 18.0312C27.9094 18.2137 27.5595 18.4503 27.3799 18.6299C27.2003 18.8095 26.9637 19.1594 26.7812 19.9902C26.5925 20.8497 26.5 22.0455 26.5 23.75V29.75H38.5V17.75H32.5ZM43.5 29.75H55.5V23.75C55.5 22.0455 55.4075 20.8497 55.2188 19.9902C55.0363 19.1594 54.7997 18.8095 54.6201 18.6299C54.4405 18.4503 54.0906 18.2137 53.2598 18.0312C52.4003 17.8425 51.2045 17.75 49.5 17.75H43.5V29.75Z" fill="black"/>
</svg>
