<?xml version="1.0" encoding="UTF-8"?>
<svg id="Layer_1" data-name="Layer 1" xmlns="http://www.w3.org/2000/svg" viewBox="0 0 298.56 627.05">
  <path d="M99.96.04c1.13,0,2.25-.02,3.41-.03,3.7-.02,7.39,0,11.09,0,2.58,0,5.17,0,7.75-.01,5.41,0,10.81,0,16.22.03,6.23.03,12.45.02,18.68,0,6.02-.03,12.04-.02,18.06,0,2.55,0,5.1,0,7.65-.01,3.57-.01,7.13,0,10.7.03q1.56-.02,3.16-.03c7.72.11,14.23,2,20.21,7.08,5.59,6.09,5.64,13.4,5.61,21.18,0,.95,0,1.89.01,2.87.01,3.16,0,6.33,0,9.49,0,2.27,0,4.54.02,6.82.01,6.17.01,12.33.01,18.5,0,5.15,0,10.3,0,15.45.01,12.84.01,25.69,0,38.53,0,11.14,0,22.28.03,33.43.02,11.45.03,22.91.02,34.36,0,6.42,0,12.85.01,19.27.01,6.04.01,12.09,0,18.13,0,2.22,0,4.43,0,6.65.01,3.03,0,6.06-.01,9.09,0,.87.01,1.74.02,2.64-.06,7.02-1.3,13.81-5.65,19.51-6.82,6.67-12.2,7.27-21.43,7.21q-1.74.01-3.51.02c-3.82.02-7.64,0-11.46,0-2.66,0-5.32,0-7.98.01-5.57,0-11.15,0-16.72-.02-6.43-.02-12.86-.01-19.29,0-5.53.02-11.07.02-16.6.01-3.3,0-6.6,0-9.9,0-3.68.01-7.36,0-11.04-.03-1.08,0-2.16.02-3.28.02-7.4-.08-12.96-1.2-18.56-6.44-.45-.63-.89-1.27-1.35-1.92q-.69-.94-1.4-1.89c-3.28-6.13-3.52-12.04-3.49-18.84,0-.94,0-1.89-.01-2.86-.01-3.15,0-6.3,0-9.45,0-2.26,0-4.52-.02-6.79-.01-6.14-.01-12.28-.01-18.42,0-5.13,0-10.25,0-15.38-.01-12.79-.01-25.58,0-38.36,0-11.09,0-22.19-.03-33.28-.02-11.4-.03-22.81-.02-34.21,0-6.4,0-12.79-.01-19.19-.01-6.02-.01-12.03,0-18.05,0-2.21,0-4.41,0-6.62-.01-3.02,0-6.03.01-9.05,0-.87-.01-1.74-.02-2.63.06-6.91,1.53-12.89,4.96-18.93C82.93,1.36,90.56-.05,99.96.04Z"/>
  <path d="M244.25,244.69c4.61,1.38,8.67,3.28,12.81,5.69.61.35,1.23.71,1.86,1.07,20.04,11.81,31.17,28.53,37.53,50.68,1.76,7.84,2,15.67,2.05,23.68.02.91.04,1.82.06,2.76.06,11.14-1.74,22.11-3.31,33.11-.15,1.06-.3,2.12-.45,3.22-7.17,50.75-14.78,101.87-26.55,151.78-.18.77-.36,1.55-.55,2.34q-12.58,53.43-23.45,74.66c-.49,1.01-.98,2.02-1.49,3.06-6.75,13.11-18.31,19.41-31.99,23.91-19.02,5.53-38,6.38-57.67,6.34-3.52,0-7.04.02-10.56.05-25.07.07-60.48-.5-79.81-19.53-15.84-19.41-21.29-46.08-27.49-69.83-.31-1.18-.62-2.37-.94-3.58-5.8-22.25-9.97-44.81-14.06-67.42q-.26-1.45-.53-2.94c-5.1-28.16-9.68-56.39-13.97-84.69-.11-.73-.22-1.45-.33-2.2-.64-4.21-1.27-8.42-1.9-12.63-.28-1.89-.57-3.78-.85-5.68-4.34-29.22-5.25-59.9,12.25-85.27,1.71-2.27,3.48-4.44,5.34-6.59.57-.67,1.14-1.33,1.73-2.02,7.15-7.73,16.75-13.61,26.27-17.98h2c.66,5.61,1.32,11.22,2,17-2.15,1.32-4.29,2.64-6.5,4-13.52,8.62-22.37,20.28-26.5,36-2.79,14.11-2.51,27.9-.77,42.09.13,1.08.26,2.16.4,3.27,1.65,13.28,3.68,26.51,5.74,39.74.33,2.13.66,4.26.99,6.38q13.25,94.24,40.71,184.96c.3.75.61,1.5.92,2.28,4.52,10.53,10.41,16.19,21.01,20.54,34.15,12.66,93.45,13,127-2.26.72-.32,1.45-.64,2.19-.98,13.62-7.19,17.84-26.69,22.08-40.3,19.09-62.42,28.11-127.88,37.79-192.28.15-.97.29-1.94.44-2.94,4.14-27.54,8.59-58.45-8.89-82.52-7.38-9.06-16.16-14.88-26.61-19.98.14-2.65.29-5.29.44-7.94.04-.75.08-1.51.12-2.29q.33-5.66,1.44-6.78Z"/>
  <path d="M90.41,290.54c1.07,0,2.14-.01,3.24-.02,1.17,0,2.34,0,3.55,0,1.23,0,2.47-.01,3.74-.02,4.1-.02,8.19-.03,12.29-.04,1.41,0,2.82,0,4.24-.01,6.64-.02,13.28-.03,19.92-.04,7.65,0,15.3-.04,22.95-.08,5.92-.03,11.84-.04,17.76-.05,3.53,0,7.06-.01,10.6-.04,3.95-.03,7.89-.02,11.84-.02,1.16-.01,2.32-.03,3.51-.04,7.01.04,12.07,1.13,18.21,4.51q1.14.57,2.3,1.15c14.28,7.16,23.73,18.24,29.7,32.85,4.35,13.31,5.73,26.63,4.27,40.56-.09.85-.17,1.69-.26,2.56-1.36,12.7-3.14,25.34-4.9,37.99-.3,2.16-.6,4.32-.9,6.48-3.13,22.57-6.62,45.05-10.85,67.45-.57,3.04-1.11,6.08-1.66,9.13q-14.27,78.01-31.33,92.08c-9.51,6.49-20.19,8.92-31.38,10.75-1.04.17-2.08.35-3.15.52-4.38.54-8.65.66-13.06.68-.88,0-1.75.01-2.66.02-1.86,0-3.71.02-5.57.02-2.77,0-5.54.04-8.31.07-18.59.11-41.61-.55-56.38-13.41-36.95-37.41-37.07-131.76-43.83-181.28-.6-4.41-1.22-8.82-1.87-13.22-.14-.93-.27-1.86-.41-2.82-.26-1.76-.52-3.53-.78-5.29-3.39-23.27-3.16-47.34,11.01-67.29.43-.61.85-1.22,1.29-1.85,8.07-10.39,23.38-21.24,36.87-21.3Z"/>
</svg>